<svg xmlns="http://www.w3.org/2000/svg" xml:space="preserve" width="640" height="640" version="1.1" viewBox="0 0 640 640"><g fill-rule="nonzero" paint-order="stroke"><path d="M180.77 285.993H89.138a10.324 10.324 0 0 1-10.329-10.328v-1.114a10.324 10.324 0 0 1 10.329-10.328h91.63c5.701 0 10.329 4.62 10.329 10.328v1.114c0 5.707-4.628 10.328-10.329 10.328m9.353 43.051H89.136c-5.708 0-10.329-4.628-10.329-10.329v-1.12c0-5.701 4.621-10.329 10.329-10.329H190.12c5.701 0 10.329 4.628 10.329 10.329v1.12c0 5.701-4.628 10.329-10.329 10.329m19.438 43.041H89.136a10.324 10.324 0 0 1-10.329-10.329v-1.113c0-5.701 4.621-10.329 10.329-10.329h120.422c5.701 0 10.329 4.628 10.329 10.329v1.113c0 5.708-4.628 10.329-10.329 10.329m29.503 43.047H89.133c-5.707 0-10.328-4.627-10.328-10.328v-1.114c0-5.708 4.62-10.329 10.328-10.329h149.928a10.325 10.325 0 0 1 10.329 10.329v1.114c0 5.7-4.621 10.328-10.329 10.328m-18.549 43.05H89.695c-6.015 0-10.889-4.874-10.889-10.888s4.874-10.889 10.889-10.889h130.817c6.015 0 10.889 4.874 10.889 10.889s-4.874 10.888-10.889 10.888" fill="#1576b9" opacity="1"/><path d="M9.769 523.945s135.938-.98 199.03-.014c53.343.814 99.738-36.193 113.52-84.362 20.531-71.767-39.933-113.874-52.042-175.432-2.787-14.17-3.68-28.526-2.6-42.728 4.86-63.752 47.962-124.023 114.6-145.1 16.223-5.128 33.893-7.582 50.95-7.848 45.368-.7 134.605-.66 175.466-.6 11.788.013 21.384-9.456 21.53-21.238 0-.147 0-.293.007-.433.153-11.956-9.482-21.744-21.437-21.77-41.361-.1-130.991-.274-177.44.152-113.047 1.06-192.302 87.817-204.758 177.073-3.013 21.61-3.087 42.321-.286 62.218 4.527 32.24 17.443 61.785 36.146 90.61 17.057 26.285 20.864 38.314 20.878 52.177.026 39.38-29.826 72.386-68.753 73.166-53.023 1.067-106.086.274-158.93.267V241.62h82.616c22.83 0 41.974-16.943 45.088-39.56H9.77v321.886m450.02-169.945h90.51c6.015 0 10.89 4.874 10.89 10.889s-4.875 10.888-10.89 10.888h-90.51c-6.014 0-10.888-4.874-10.888-10.888S453.776 354 459.791 354m-9.352-43.04h99.865c6.014 0 10.889 4.874 10.889 10.882 0 6.014-4.875 10.888-10.889 10.888h-99.865c-6.015 0-10.889-4.874-10.889-10.888 0-6.008 4.874-10.882 10.889-10.882" fill="#1b9554" opacity="1"/><path d="M431.002 267.91h119.302c6.015 0 10.889 4.874 10.889 10.889 0 6.008-4.874 10.882-10.889 10.882H431.002c-6.014 0-10.889-4.874-10.889-10.882 0-6.015 4.875-10.889 10.89-10.889m-30.064-43.042h149.928c5.707 0 10.328 4.62 10.328 10.322v1.12c0 5.701-4.62 10.329-10.328 10.329H400.939c-5.708 0-10.329-4.628-10.329-10.329v-1.12c0-5.701 4.621-10.322 10.329-10.322m17.989-43.048h131.937a10.325 10.325 0 0 1 10.329 10.33v1.113c0 5.708-4.62 10.329-10.329 10.329H418.928c-5.701 0-10.329-4.621-10.329-10.329v-1.114c0-5.707 4.628-10.328 10.329-10.328" fill="#1b9554" opacity="1"/><path d="M630.231 116.057s-135.938.973-199.03.013c-53.343-.813-99.738 36.193-113.52 84.362-20.531 71.767 39.933 113.875 52.042 175.433 2.787 14.169 3.68 28.518 2.6 42.72-4.86 63.753-47.962 124.03-114.6 145.101-16.223 5.134-33.893 7.588-50.95 7.848-45.368.707-134.605.667-175.466.607-11.788-.02-21.384 9.448-21.53 21.237 0 .14 0 .287-.007.434-.153 11.955 9.482 21.737 21.437 21.764 41.361.106 130.991.28 177.44-.154 113.047-1.053 192.302-87.81 204.758-177.072 3.013-21.611 3.087-42.322.286-62.219-4.527-32.232-17.443-61.778-36.146-90.61-17.057-26.278-20.864-38.307-20.878-52.176-.026-39.374 29.826-72.38 68.753-73.16 53.023-1.067 106.086-.273 158.93-.273v238.464h-82.616c-22.83 0-41.974 16.95-45.088 39.567H630.23V116.057" fill="#1576b9" opacity="1"/></g></svg>