<svg xmlns="http://www.w3.org/2000/svg" xml:space="preserve" width="1200" height="400" version="1.1" viewBox="0 0 1200 400"><g fill-rule="nonzero" paint-order="stroke"><path d="M88.231 182.454H40.953a5.327 5.327 0 0 1-5.33-5.33v-.574a5.327 5.327 0 0 1 5.33-5.33H88.23a5.33 5.33 0 0 1 5.33 5.33v.574a5.33 5.33 0 0 1-5.33 5.33m4.827 22.212H40.95a5.33 5.33 0 0 1-5.329-5.329v-.578a5.33 5.33 0 0 1 5.33-5.33h52.105a5.331 5.331 0 0 1 5.329 5.33v.578a5.331 5.331 0 0 1-5.33 5.33m10.03 22.207H40.951a5.327 5.327 0 0 1-5.329-5.329v-.575a5.33 5.33 0 0 1 5.33-5.329h62.133a5.331 5.331 0 0 1 5.33 5.33v.574a5.33 5.33 0 0 1-5.33 5.33m15.223 22.21H40.95a5.33 5.33 0 0 1-5.33-5.329v-.575a5.327 5.327 0 0 1 5.33-5.329h77.358a5.327 5.327 0 0 1 5.33 5.33v.574a5.33 5.33 0 0 1-5.33 5.33m-9.571 22.212H41.24a5.618 5.618 0 1 1 0-11.237h67.497a5.618 5.618 0 1 1 0 11.237" fill="#1576b9" opacity="1"/><path d="M0 305.229s70.14-.506 102.694-.007c27.523.42 51.462-18.674 58.573-43.528 10.593-37.03-20.605-58.756-26.853-90.518-1.438-7.31-1.899-14.718-1.341-22.046 2.508-32.894 24.747-63.992 59.13-74.867 8.37-2.646 17.488-3.912 26.289-4.05 23.408-.36 69.451-.34 90.534-.31 6.083.008 11.034-4.878 11.11-10.957 0-.076 0-.151.003-.224.08-6.168-4.892-11.219-11.061-11.233-21.341-.051-67.587-.14-91.553.08-58.33.547-99.222 45.31-105.649 91.364-1.555 11.15-1.593 21.836-.148 32.102 2.336 16.635 9 31.88 18.65 46.752 8.801 13.562 10.766 19.769 10.773 26.921.014 20.32-15.39 37.35-35.474 37.752-27.359.55-54.738.141-82.003.138v-123.04H66.3c11.78 0 21.657-8.742 23.264-20.412H0v166.083m232.198-87.686h46.7a5.618 5.618 0 1 1 0 11.237h-46.7a5.618 5.618 0 1 1 0-11.237m-4.826-22.208H278.9a5.617 5.617 0 1 1 0 11.233h-51.528a5.618 5.618 0 1 1 0-11.233" fill="#1b9554" opacity="1"/><path d="M217.344 173.123H278.9a5.618 5.618 0 1 1 0 11.233h-61.556a5.617 5.617 0 1 1 0-11.233m-15.512-22.208h77.358a5.326 5.326 0 0 1 5.33 5.326v.578a5.33 5.33 0 0 1-5.33 5.329h-77.358a5.33 5.33 0 0 1-5.33-5.33v-.577a5.326 5.326 0 0 1 5.33-5.326m9.282-22.211h68.075a5.327 5.327 0 0 1 5.33 5.33v.574a5.327 5.327 0 0 1-5.33 5.329h-68.075a5.33 5.33 0 0 1-5.33-5.33v-.574a5.33 5.33 0 0 1 5.33-5.33" fill="#1b9554" opacity="1"/><path d="M320.14 94.772s-70.14.502-102.694.007c-27.523-.42-51.462 18.674-58.573 43.528-10.593 37.03 20.605 58.755 26.853 90.517 1.438 7.311 1.899 14.715 1.341 22.043-2.508 32.894-24.747 63.996-59.13 74.867-8.37 2.65-17.488 3.916-26.289 4.05-23.408.364-69.451.344-90.534.313-6.083-.01-11.034 4.875-11.11 10.958 0 .072 0 .148-.003.223-.08 6.169 4.892 11.216 11.061 11.23 21.341.055 67.587.144 91.553-.08 58.33-.543 99.222-45.306 105.649-91.363 1.555-11.15 1.593-21.837.148-32.103-2.336-16.63-9-31.875-18.65-46.752-8.801-13.559-10.766-19.765-10.773-26.921-.014-20.316 15.39-37.346 35.474-37.749 27.359-.55 54.738-.14 82.003-.14v123.04H253.84c-11.78 0-21.657 8.745-23.264 20.415h89.565V94.772" fill="#1576b9" opacity="1"/></g><path d="M130.8 549.932q4.16 0 8.64 1.76t8.64 4.64h-.16q4.16 2.88 6.4 7.84t2.24 11.36v21.92q0 12.96-8.64 19.36-4.16 3.04-8.64 4.8-4.32 1.6-8.48 1.6H95.92q-4.16 0-8.64-1.6-4.32-1.76-8.48-4.8-8.64-6.4-8.64-19.36v-10.56q0-7.52 9.44-7.52 9.6 0 9.6 7.52v9.28q0 4.16 2.4 7.52 2.4 3.36 8.32 3.36h26.88q5.92 0 8.32-3.36 2.4-3.36 2.4-7.52v-19.36q0-4-2.4-7.36-2.4-3.52-8.32-3.52H95.92q-8.32 0-17.12-6.08-8.64-6.72-8.64-19.36v-19.04q0-6.4 2.24-11.2 2.24-4.96 6.4-8h-.16q4.16-2.72 8.64-4.48 4.48-1.76 8.64-1.76h34.88q4.16 0 8.64 1.76t8.64 4.48h-.16q4.16 3.04 6.4 8 2.24 4.8 2.24 11.2v9.44q0 7.52-9.6 7.52-9.44 0-9.44-7.52v-8q0-4-2.4-7.36-2.4-3.36-8.32-3.36H99.92q-5.92 0-8.32 3.36-2.4 3.36-2.4 7.36v16.32q0 4.16 2.4 7.52 2.4 3.2 8.32 3.2zm92.96-38.24-35.04 107.52v-.16q-.96 2.4-2.72 4-1.6 1.44-4 1.44-1.28 0-2.56-.32-1.12-.16-2.4-.48h.16q-9.12-2.88-6.72-10.24l36.48-110.88q.8-2.56 2.72-4.32 2.08-1.76 4.8-2.08 2.72-.48 5.28-.64 2.56-.32 4-.32t4 .32q2.56.16 5.28.48 2.24.32 4.32 2.4 2.24 2.08 3.36 4.16 8.96 27.52 18.08 55.52 9.28 27.84 18.24 55.36 2.24 7.36-6.72 10.24-1.28.32-2.4.48-.96.32-2.24.32-2.24 0-4.16-1.44-1.76-1.6-2.56-4v.16zm12 72.96q0 5.12-3.68 8.8-3.52 3.52-8.64 3.52-5.12 0-8.64-3.52-3.52-3.68-3.52-8.8 0-5.12 3.52-8.64 3.52-3.68 8.64-3.68 5.12 0 8.64 3.68 3.68 3.52 3.68 8.64zm65.76 38.56q-5.92 0-8-3.04t-2.08-6.72v-110.56q0-7.68 9.28-7.68 9.6 0 9.6 7.68v104.16h53.44q5.76 0 5.76 7.84.32 8.32-5.76 8.32zm120.32.64q-3.2 0-6.88-.96-3.52-1.12-5.12-4-3.68-12.48-7.68-25.6-4-13.12-8-25.76-4.48-14.88-9.6-30.88-5.12-16.16-9.6-30.88-.96-3.52 1.12-6.08 2.08-2.72 5.92-4 2.4-.64 4.16-.64 5.44 0 7.04 5.44l11.84 37.92q1.6 5.76 3.68 12.64 2.24 6.88 4.48 14.08l4.48 14.4q2.24 7.04 4.16 13.12 3.04-10.08 6.56-21.76 3.68-11.84 7.36-24 3.84-12.16 7.52-24 3.68-12 6.88-22.4 1.76-5.44 6.88-5.44 1.92 0 4.48.64 8.8 2.4 6.88 10.08-8.64 28-17.44 56.48-8.8 28.48-17.44 56.64-1.28 3.2-4.8 4.16-3.36.8-6.88.8zm122.24-127.84q4.16 0 8.64 1.76t8.64 4.48h-.16q4.16 3.04 6.4 8 2.24 4.8 2.24 11.2v76q0 12.96-8.64 19.36-4.16 3.04-8.64 4.8-4.32 1.6-8.48 1.6H509.2q-4.16 0-8.64-1.6-4.32-1.76-8.48-4.8-4.16-3.2-6.4-7.84-2.24-4.8-2.24-11.52v-76q0-6.4 2.24-11.2 2.24-4.96 6.4-8h-.16q4.16-2.72 8.64-4.48 4.48-1.76 8.64-1.76zm-4 111.04q5.92 0 8.32-3.36 2.4-3.36 2.4-7.52v-73.28q0-4-2.4-7.36-2.4-3.36-8.32-3.36H513.2q-5.92 0-8.32 3.36-2.4 3.36-2.4 7.36v73.28q0 4.16 2.4 7.52 2.4 3.36 8.32 3.36z" fill="#1576b9" fill-rule="nonzero" aria-label="SALVO" font-family="Gugi" opacity="1" style="-inkscape-font-specification:Gugi" transform="translate(247.849 -738.76) scale(1.6709)"/></svg>