<svg xmlns:xlink="http://www.w3.org/1999/xlink" xmlns="http://www.w3.org/2000/svg" viewBox="0 0 245 65.16350895406177" preserveAspectRatio="xMidYMid meet" class="css-1uxicuq" id="aehgaeed" width="245"  height="65.16350895406177" ><defs id="SvgjsDefs1001"></defs><g id="SvgjsG1007" featurekey="v37d4h-0" transform="matrix(0.9135738611221313,0,0,0.9135738611221313,-18.178691928367506,-13.096937451336622)" fill="#FC4C69"><g xmlns="http://www.w3.org/2000/svg" fill="#FC4C69"><g fill="#FC4C69"><path d="M50.023,52.662c8.141,0,20.761-8.777,13.741-23.499c-0.393-0.824,0.732-1.517,1.283-0.79    c11.625,15.355-1.063,32.072-15.024,32.072h-0.045c-13.961,0-26.649-16.717-15.024-32.072c0.551-0.728,1.676-0.034,1.283,0.79    C29.217,43.886,42.063,52.662,50.023,52.662L50.023,52.662z" fill="#FC4C69"></path><path d="M60.879,65.505c9.612-4.494,19.223-0.315,19.223,9.098c0,6.348-5.974,14.285-15.584,9.534    c-0.664-0.328-0.323-1.321,0.405-1.183c5.695,1.082,9.701-2.839,9.701-7.259c0-6.563-7.359-6.012-11.733-3.508L39.121,83.852    c-9.612,4.494-19.223,0.315-19.223-9.098c0-6.348,5.974-14.285,15.584-9.534c0.664,0.328,0.323,1.321-0.405,1.183    c-5.695-1.082-9.701,2.839-9.701,7.259c0,6.563,7.359,6.012,11.733,3.508l23.771-11.667L60.879,65.505z" fill="#FC4C69"></path><path d="M50,14.336c-9.557,0-11.465,14.069-5.809,19.744c0.591,0.593,1.536-0.166,1.086-0.872    C42.275,28.49,44.737,20.636,50,20.645c5.263-0.009,7.725,7.845,4.723,12.562c-0.45,0.707,0.495,1.466,1.086,0.872    C61.465,28.405,59.557,14.336,50,14.336z" fill="#FC4C69"></path></g></g></g><g id="SvgjsG1008" featurekey="UxBHKT-0" transform="matrix(4.065010070800781,0,0,4.065010070800781,74.84121053614795,-17.75340930319447)" fill="#FC4C69"><path d="M4.1 20.18 c-0.65334 0 -1.2335 -0.086738 -1.7401 -0.26008 s-0.93332 -0.45 -1.28 -0.83 s-0.60332 -0.87666 -0.76998 -1.49 s-0.23666 -1.3533 -0.21 -2.22 l1.2 0 c0 0.42666 0.02 0.87 0.06 1.33 s0.14666 0.88 0.32 1.26 s0.43668 0.69 0.79002 0.93 s0.84334 0.36 1.47 0.36 c0.53334 0 0.98668 -0.08 1.36 -0.24 s0.67668 -0.37334 0.91002 -0.64 s0.39668 -0.58 0.49002 -0.94 s0.14 -0.73334 0.14 -1.12 c0 -0.45334 -0.08334 -0.85 -0.25 -1.19 s-0.38666 -0.64334 -0.66 -0.91 s-0.59334 -0.50332 -0.96 -0.70998 s-0.75 -0.39 -1.15 -0.55 c-0.64 -0.25334 -1.2 -0.50334 -1.68 -0.75 s-0.87334 -0.52332 -1.18 -0.82998 s-0.53666 -0.66332 -0.69 -1.07 s-0.23 -0.90332 -0.23 -1.49 c0 -1.3333 0.35 -2.3266 1.05 -2.98 s1.7033 -0.98 3.01 -0.98 c1.1333 0 2.03 0.33 2.69 0.99 s0.99 1.65 0.99 2.97 l0 1.1 l-1.12 0 l0 -1.2 c0 -0.41334 -0.05 -0.79668 -0.15 -1.15 s-0.25666 -0.66334 -0.47 -0.93 s-0.48334 -0.47666 -0.81 -0.63 s-0.71666 -0.23 -1.17 -0.23 c-1.0667 0 -1.83 0.28 -2.29 0.84 s-0.67 1.3133 -0.63 2.26 c0.01334 0.41334 0.09 0.76668 0.23 1.06 s0.32666 0.55 0.56 0.77 s0.51334 0.41666 0.84 0.59 s0.69 0.34668 1.09 0.52002 c0.46666 0.2 0.93 0.41334 1.39 0.64 s0.89 0.50666 1.29 0.84 c0.4 0.34666 0.73 0.75 0.99 1.21 s0.39 1.03 0.39 1.71 c0 1.32 -0.33666 2.31 -1.01 2.97 s-1.61 0.99 -2.81 0.99 z M16.6 20 l-1.1 -4.42 l-4.88 0 l-1.1 4.42 l-1 0 l4.14 -15 l0.86 0 l4.12 15 l-1.04 0 z M13.120000000000001 5.9399999999999995 l-2.26 8.68 l4.38 0 z M18.599999999999998 20 l0 -15 l1.08 0 l0 13.92 l5.1 0 l0 1.08 l-6.18 0 z M29.08 20 l-0.86 0 l-4.14 -15 l1.06 0 l3.5 13.26 l3.58 -13.26 l1.02 0 z M37.82 20.18 c-2.52 0 -3.78 -1.32 -3.78 -3.96 l0 -7.4 c0 -1.3333 0.31666 -2.3266 0.95 -2.98 s1.6567 -0.98 3.07 -0.98 c1.2933 0 2.25 0.33 2.87 0.99 s0.93 1.6367 0.93 2.93 l0 7.44 c0 0.66666 -0.07 1.2467 -0.21 1.74 s-0.37 0.90668 -0.69 1.24 s-0.73666 0.58 -1.25 0.74 s-1.1433 0.24 -1.89 0.24 z M40.8 8.76 c0 -0.33334 -0.04664 -0.67338 -0.13998 -1.02 s-0.24668 -0.66332 -0.46002 -0.94998 s-0.49668 -0.52 -0.85002 -0.7 s-0.79 -0.27 -1.31 -0.27 c-0.57334 0 -1.05 0.08 -1.43 0.24 s-0.68 0.38334 -0.9 0.67 s-0.37666 0.62332 -0.47 1.01 s-0.14 0.80666 -0.14 1.26 l0 7.1 c0 0.34666 0.04 0.7 0.12 1.06 s0.22334 0.69 0.43 0.99 s0.48666 0.54666 0.84 0.74 s0.79668 0.29 1.33 0.29 c0.57334 0 1.05 -0.07666 1.43 -0.23 s0.68334 -0.36334 0.91 -0.63 s0.39 -0.58332 0.49 -0.94998 s0.15 -0.76332 0.15 -1.19 l0 -7.42 z" fill="#FC4C69"></path></g></svg>