<svg width="74" height="40" viewBox="0 0 74 40" fill="none" xmlns="http://www.w3.org/2000/svg">
<path d="M69.996 2.33422H4.10743C3.78912 2.33422 3.47082 2.44032 3.25862 2.65252C3.04642 2.97082 2.83422 3.28912 2.83422 3.60743V36.4987C2.83422 36.817 2.94032 37.1353 3.15252 37.3475C3.36472 37.5597 3.68302 37.6658 4.00133 37.6658H69.8899C70.2082 37.6658 70.5265 37.5597 70.7387 37.3475C70.9509 37.1353 71.057 36.817 71.057 36.4987V3.60743C71.057 3.28912 70.9509 2.97082 70.7387 2.75862C70.6326 2.54642 70.3143 2.33422 69.996 2.33422ZM4.10743 0H69.996C70.9509 0 71.9058 0.424403 72.5424 1.06101C73.179 1.69761 73.6034 2.54642 73.6034 3.60743V36.4987C73.6034 37.4536 73.179 38.4085 72.5424 39.0451C71.9058 39.6817 70.9509 40.1061 69.996 40.1061H4.10743C3.15252 40.1061 2.19761 39.6817 1.56101 39.0451C0.924403 38.4085 0.5 37.5597 0.5 36.4987V3.60743C0.5 2.65252 0.924403 1.69761 1.56101 1.06101C2.19761 0.424403 3.15252 0 4.10743 0Z" fill="#181D23"/>
<path d="M70.6326 38.3028L48.3514 4.45663L25.1153 37.7723L24.6909 37.1357L24.1604 36.1808L8.5636 12.4142L6.65378 13.4752L3.78906 2.97122L11.4283 10.7166L9.51851 11.7776L25.1153 35.5442L48.3514 2.22852L71.5875 37.6662L70.6326 38.3028Z" fill="#181D23"/>
<path d="M22.0384 22.8113C20.8713 22.1747 19.9164 21.3259 19.2798 20.1588C18.6432 18.9917 18.2188 17.7185 18.2188 16.3392C18.2188 14.8538 18.5371 13.5805 19.2798 12.5195C19.9164 11.3524 20.8713 10.5036 22.0384 9.86702C23.2055 9.23041 24.5848 8.91211 26.0702 8.91211C27.2373 8.91211 28.4044 9.12431 29.3593 9.54871C30.3142 9.97312 31.163 10.6097 31.9058 11.3524L30.102 12.7317C29.041 11.5646 27.7678 11.0341 26.1763 11.0341C25.2214 11.0341 24.2665 11.2463 23.5238 11.6707C22.7811 12.0951 22.1445 12.7317 21.7201 13.4744C21.2957 14.2171 21.0835 15.1721 21.0835 16.127C21.0835 17.0819 21.2957 18.0368 21.7201 18.7795C22.1445 19.5222 22.7811 20.1588 23.6299 20.5832C24.3726 21.0076 25.3275 21.2198 26.2824 21.2198C27.8739 21.2198 29.1471 20.5832 30.2081 19.5222L32.0119 21.2198C31.3752 22.0686 30.5264 22.5991 29.4654 23.0235C28.5105 23.4479 27.3434 23.6601 26.1763 23.6601C24.5848 23.7662 23.2055 23.4479 22.0384 22.8113Z" fill="#181D23"/>
<path d="M52.3837 16.9764C53.3387 17.4009 54.0814 18.0375 54.5058 18.7802C55.0363 19.5229 55.2485 20.4778 55.2485 21.5388C55.2485 22.5998 55.0363 23.5547 54.5058 24.2974C53.9753 25.0401 53.3387 25.6767 52.3837 26.1011C51.4288 26.5255 50.3678 26.7377 49.0946 26.7377H45.8055V30.9818H43.0469V16.3398H49.0946C50.3678 16.3398 51.4288 16.552 52.3837 16.9764ZM51.7471 23.6608C52.3837 23.1303 52.702 22.3876 52.702 21.5388C52.702 20.5839 52.3837 19.8412 51.7471 19.4168C51.1105 18.8863 50.2617 18.6741 49.0946 18.6741H45.9116V24.5096H49.0946C50.1556 24.4035 51.1105 24.1913 51.7471 23.6608Z" fill="#181D23"/>
<path d="M64.9021 35.1201C63.4167 34.2713 61.8252 33.3164 58.7483 33.3164C55.6714 33.3164 54.0799 34.2713 52.5945 35.1201C51.3212 35.8628 50.048 36.6055 47.8199 36.7116C45.4857 36.6055 44.3186 35.8628 43.0454 35.1201C41.56 34.2713 39.9685 33.3164 36.8915 33.3164C33.8146 33.3164 32.2231 34.2713 30.7377 35.1201C29.3584 35.9689 27.9791 36.7116 25.2204 36.7116C22.4618 36.7116 21.1886 35.9689 19.7032 35.1201C18.2178 34.2713 16.6263 33.3164 13.5494 33.3164C10.4724 33.3164 8.88093 34.2713 7.39552 35.1201C6.0162 36.075 4.63689 36.9238 1.98438 36.9238V38.197C5.0613 38.197 6.65281 37.2421 8.13822 36.3933C9.51753 35.5445 10.8968 34.8018 13.6555 34.8018C16.4141 34.8018 17.6873 35.5445 19.1727 36.3933C20.6581 37.2421 22.2496 38.197 25.3265 38.197C28.4035 38.197 29.995 37.2421 31.4804 36.3933C32.8597 35.5445 34.239 34.8018 36.9976 34.8018C39.7563 34.8018 41.0295 35.5445 42.5149 36.3933C43.7881 37.136 45.0613 37.8787 47.3955 38.0909V38.197C47.6077 38.197 47.8199 38.197 48.0321 38.197C48.2443 38.197 48.4565 38.197 48.6687 38.197V38.0909C50.8968 37.8787 52.2762 37.136 53.5494 36.3933C54.9287 35.5445 56.308 34.8018 59.0666 34.8018C61.8252 34.8018 63.0984 35.5445 64.5838 36.3933C66.0693 37.2421 67.6608 38.197 70.7377 38.197V36.9238C67.6608 36.7116 66.2815 35.9689 64.9021 35.1201Z" fill="#181D23"/>
</svg>
