<?xml version="1.0" encoding="UTF-8" standalone="no"?>
<svg
   version="1.1"
   width="640"
   height="640"
   viewBox="0 0 640 640"
   xml:space="preserve"
   id="svg488"
   xmlns="http://www.w3.org/2000/svg"
   xmlns:svg="http://www.w3.org/2000/svg"><defs
   id="defs458" />


<g
   paint-order="stroke"
   id="g57"
   transform="matrix(1.8436758,0,0,1.8436758,320,228.7108)">
		<g
   transform="matrix(0.27972889,0,0,-0.27972889,-77.630811,-18.832508)"
   id="g11">
<path
   style="opacity:1;fill:#243066;fill-rule:nonzero;stroke:none;stroke-width:1;stroke-linecap:butt;stroke-linejoin:miter;stroke-miterlimit:4;stroke-dasharray:none;stroke-dashoffset:0"
   paint-order="stroke"
   transform="translate(-1347.44,-1516.395)"
   d="m 1416.15,1500.07 h -137.42 c -8.56,0 -15.49,6.93 -15.49,15.49 v 1.67 c 0,8.56 6.93,15.49 15.49,15.49 h 137.42 c 8.55,0 15.49,-6.93 15.49,-15.49 v -1.67 c 0,-8.56 -6.94,-15.49 -15.49,-15.49"
   stroke-linecap="round"
   id="path9" />
</g>
		<g
   transform="matrix(0.27972889,0,0,-0.27972889,-75.668712,-0.77433804)"
   id="g15">
<path
   style="opacity:1;fill:#243066;fill-rule:nonzero;stroke:none;stroke-width:1;stroke-linecap:butt;stroke-linejoin:miter;stroke-miterlimit:4;stroke-dasharray:none;stroke-dashoffset:0"
   paint-order="stroke"
   transform="translate(-1354.455,-1451.83)"
   d="m 1430.18,1435.5 h -151.45 c -8.56,0 -15.49,6.94 -15.49,15.49 v 1.68 c 0,8.55 6.93,15.49 15.49,15.49 h 151.45 c 8.55,0 15.49,-6.94 15.49,-15.49 v -1.68 c 0,-8.55 -6.94,-15.49 -15.49,-15.49"
   stroke-linecap="round"
   id="path13" />
</g>
		<g
   transform="matrix(0.27972889,0,0,-0.27972889,-71.592227,17.283832)"
   id="g19">
<path
   style="opacity:1;fill:#243066;fill-rule:nonzero;stroke:none;stroke-width:1;stroke-linecap:butt;stroke-linejoin:miter;stroke-miterlimit:4;stroke-dasharray:none;stroke-dashoffset:0"
   paint-order="stroke"
   transform="translate(-1369.03,-1387.265)"
   d="m 1459.33,1370.94 h -180.6 c -8.56,0 -15.49,6.93 -15.49,15.49 v 1.67 c 0,8.55 6.93,15.49 15.49,15.49 h 180.6 c 8.55,0 15.49,-6.94 15.49,-15.49 v -1.67 c 0,-8.56 -6.94,-15.49 -15.49,-15.49"
   stroke-linecap="round"
   id="path17" />
</g>
		<g
   transform="matrix(0.27972889,0,0,-0.27972889,-65.404117,35.34343)"
   id="g23">
<path
   style="opacity:1;fill:#243066;fill-rule:nonzero;stroke:none;stroke-width:1;stroke-linecap:butt;stroke-linejoin:miter;stroke-miterlimit:4;stroke-dasharray:none;stroke-dashoffset:0"
   paint-order="stroke"
   transform="translate(-1391.155,-1322.695)"
   d="m 1503.58,1306.37 h -224.85 c -8.56,0 -15.49,6.94 -15.49,15.49 v 1.67 c 0,8.56 6.93,15.49 15.49,15.49 h 224.85 c 8.56,0 15.49,-6.93 15.49,-15.49 v -1.67 c 0,-8.55 -6.93,-15.49 -15.49,-15.49"
   stroke-linecap="round"
   id="path21" />
</g>
		<g
   transform="matrix(0.27972889,0,0,-0.27972889,-69.177174,53.401601)"
   id="g27">
<path
   style="opacity:1;fill:#243066;fill-rule:nonzero;stroke:none;stroke-width:1;stroke-linecap:butt;stroke-linejoin:miter;stroke-miterlimit:4;stroke-dasharray:none;stroke-dashoffset:0"
   paint-order="stroke"
   transform="translate(-1377.665,-1258.13)"
   d="m 1475.76,1241.8 h -196.19 c -9.02,0 -16.33,7.31 -16.33,16.33 v 0 c 0,9.02 7.31,16.33 16.33,16.33 h 196.19 c 9.02,0 16.33,-7.31 16.33,-16.33 v 0 c 0,-9.02 -7.31,-16.33 -16.33,-16.33"
   stroke-linecap="round"
   id="path25" />
</g>
		<g
   transform="matrix(0.27972889,0,0,-0.27972889,3.8071302e-4,-19.246724)"
   id="g31">
<path
   style="opacity:1;fill:#dd1f2d;fill-rule:nonzero;stroke:none;stroke-width:1;stroke-linecap:butt;stroke-linejoin:miter;stroke-miterlimit:4;stroke-dasharray:none;stroke-dashoffset:0"
   paint-order="stroke"
   transform="translate(-1625.0014,-1517.8757)"
   d="m 1159.74,1143.21 c 0,0 203.87,1.47 298.49,0.02 80,-1.22 149.58,54.28 170.25,126.52 30.79,107.63 -59.89,170.78 -78.05,263.1 -4.18,21.25 -5.52,42.78 -3.9,64.08 7.29,95.61 71.93,186 171.87,217.61 24.33,7.69 50.83,11.37 76.41,11.77 68.04,1.05 201.87,0.99 263.15,0.9 17.68,-0.02 32.07,14.18 32.29,31.85 0,0.22 0,0.44 0.01,0.65 0.23,17.93 -14.22,32.61 -32.15,32.65 -62.03,0.15 -196.45,0.41 -266.11,-0.23 -169.54,-1.59 -288.4,-131.7 -307.08,-265.56 -4.52,-32.41 -4.63,-63.47 -0.43,-93.31 6.79,-48.35 26.16,-92.66 54.21,-135.89 25.58,-39.42 31.29,-57.46 31.31,-78.25 0.04,-59.06 -44.73,-108.56 -103.11,-109.73 -79.52,-1.6 -159.1,-0.41 -238.35,-0.4 v 357.63 h 123.9 c 34.24,0 62.95,25.41 67.62,59.33 h -260.33 c 0,-157.25 0,-317.93 0,-477.17 0,-1.85 0,-3.71 0,-5.57"
   stroke-linecap="round"
   id="path29" />
</g>
		<g
   transform="matrix(0.27972889,0,0,-0.27972889,77.630811,18.831907)"
   id="g35">
<path
   style="opacity:1;fill:#dd1f2d;fill-rule:nonzero;stroke:none;stroke-width:1;stroke-linecap:butt;stroke-linejoin:miter;stroke-miterlimit:4;stroke-dasharray:none;stroke-dashoffset:0"
   paint-order="stroke"
   transform="translate(-1902.56,-1381.73)"
   d="m 1834.69,1398.06 h 135.74 c 9.02,0 16.33,-7.31 16.33,-16.33 v 0 c 0,-9.02 -7.31,-16.33 -16.33,-16.33 h -135.74 c -9.02,0 -16.33,7.31 -16.33,16.33 v 0 c 0,9.02 7.31,16.33 16.33,16.33"
   stroke-linecap="round"
   id="path33" />
</g>
		<g
   transform="matrix(0.27972889,0,0,-0.27972889,75.668712,0.77373628)"
   id="g39">
<path
   style="opacity:1;fill:#dd1f2d;fill-rule:nonzero;stroke:none;stroke-width:1;stroke-linecap:butt;stroke-linejoin:miter;stroke-miterlimit:4;stroke-dasharray:none;stroke-dashoffset:0"
   paint-order="stroke"
   transform="translate(-1895.545,-1446.295)"
   d="m 1820.66,1462.62 h 149.77 c 9.02,0 16.33,-7.31 16.33,-16.32 v 0 c 0,-9.02 -7.31,-16.33 -16.33,-16.33 h -149.77 c -9.02,0 -16.33,7.31 -16.33,16.33 v 0 c 0,9.01 7.31,16.32 16.33,16.32"
   stroke-linecap="round"
   id="path37" />
</g>
		<g
   transform="matrix(0.27972889,0,0,-0.27972889,71.592227,-17.285862)"
   id="g43">
<path
   style="opacity:1;fill:#dd1f2d;fill-rule:nonzero;stroke:none;stroke-width:1;stroke-linecap:butt;stroke-linejoin:miter;stroke-miterlimit:4;stroke-dasharray:none;stroke-dashoffset:0"
   paint-order="stroke"
   transform="translate(-1880.97,-1510.865)"
   d="m 1791.51,1527.19 h 178.92 c 9.02,0 16.33,-7.31 16.33,-16.33 v 0 c 0,-9.01 -7.31,-16.32 -16.33,-16.32 h -178.92 c -9.02,0 -16.33,7.31 -16.33,16.32 v 0 c 0,9.02 7.31,16.33 16.33,16.33"
   stroke-linecap="round"
   id="path41" />
</g>
		<g
   transform="matrix(0.27972889,0,0,-0.27972889,65.404117,-35.3427)"
   id="g47">
<path
   style="opacity:1;fill:#dd1f2d;fill-rule:nonzero;stroke:none;stroke-width:1;stroke-linecap:butt;stroke-linejoin:miter;stroke-miterlimit:4;stroke-dasharray:none;stroke-dashoffset:0"
   paint-order="stroke"
   transform="translate(-1858.845,-1575.425)"
   d="m 1746.42,1591.75 h 224.85 c 8.56,0 15.49,-6.93 15.49,-15.48 v -1.68 c 0,-8.55 -6.93,-15.49 -15.49,-15.49 h -224.85 c -8.56,0 -15.49,6.94 -15.49,15.49 v 1.68 c 0,8.55 6.93,15.48 15.49,15.48"
   stroke-linecap="round"
   id="path45" />
</g>
		<g
   transform="matrix(0.27972889,0,0,-0.27972889,69.177174,-53.402202)"
   id="g51">
<path
   style="opacity:1;fill:#dd1f2d;fill-rule:nonzero;stroke:none;stroke-width:1;stroke-linecap:butt;stroke-linejoin:miter;stroke-miterlimit:4;stroke-dasharray:none;stroke-dashoffset:0"
   paint-order="stroke"
   transform="translate(-1872.335,-1639.995)"
   d="m 1773.4,1656.32 h 197.87 c 8.56,0 15.49,-6.93 15.49,-15.49 v -1.67 c 0,-8.56 -6.93,-15.49 -15.49,-15.49 H 1773.4 c -8.55,0 -15.49,6.93 -15.49,15.49 v 1.67 c 0,8.56 6.94,15.49 15.49,15.49"
   stroke-linecap="round"
   id="path49" />
</g>
		<g
   transform="matrix(0.27972889,0,0,-0.27972889,-3.8071302e-4,19.247074)"
   id="g55">
<path
   style="opacity:1;fill:#243066;fill-rule:nonzero;stroke:none;stroke-width:1;stroke-linecap:butt;stroke-linejoin:miter;stroke-miterlimit:4;stroke-dasharray:none;stroke-dashoffset:0"
   paint-order="stroke"
   transform="translate(-1624.9986,-1380.2456)"
   d="m 2090.26,1754.91 c 0,0 -203.87,-1.46 -298.49,-0.02 -80,1.22 -149.58,-54.28 -170.25,-126.52 -30.79,-107.63 59.89,-170.78 78.05,-263.1 4.18,-21.25 5.52,-42.77 3.9,-64.07 -7.29,-95.61 -71.93,-186.01 -171.87,-217.61 -24.33,-7.7 -50.83,-11.38 -76.41,-11.77 -68.04,-1.06 -201.87,-1 -263.15,-0.91 -17.68,0.03 -32.07,-14.17 -32.29,-31.85 0,-0.21 0,-0.43 -0.01,-0.65 -0.23,-17.93 14.22,-32.6 32.15,-32.64 62.03,-0.16 196.45,-0.42 266.11,0.23 169.54,1.58 288.4,131.69 307.08,265.56 4.52,32.41 4.63,63.47 0.43,93.31 -6.79,48.34 -26.16,92.65 -54.21,135.89 -25.58,39.41 -31.29,57.45 -31.31,78.25 -0.04,59.05 44.73,108.55 103.11,109.72 79.52,1.6 159.1,0.41 238.35,0.41 v -357.63 h -123.9 c -34.24,0 -62.95,-25.42 -67.62,-59.34 h 260.33 c 0,157.25 0,317.93 0,477.17 0,1.86 0,3.71 0,5.57"
   stroke-linecap="round"
   id="path53" />
</g>
</g><g
   aria-label="SALVO"
   id="text77"
   style="opacity:1;fill:#243066;fill-rule:nonzero;stroke:none;stroke-width:1;stroke-linecap:butt;stroke-linejoin:miter;stroke-miterlimit:4;stroke-dasharray:none;stroke-dashoffset:0"
   transform="translate(-4.5e-6,15.50788)"><path
     d="m 130.79988,549.93212 q 4.16,0 8.64,1.76 4.48,1.76 8.64,4.64 h -0.16 q 4.16,2.88 6.4,7.84 2.24,4.96 2.24,11.36 v 21.92 q 0,12.96 -8.64,19.36 -4.16,3.04 -8.64,4.8 -4.32,1.6 -8.48,1.6 H 95.919879 q -4.16,0 -8.64,-1.6 -4.32,-1.76 -8.48,-4.8 -8.64,-6.4 -8.64,-19.36 v -10.56 q 0,-7.52 9.44,-7.52 9.6,0 9.6,7.52 v 9.28 q 0,4.16 2.4,7.52 2.4,3.36 8.32,3.36 h 26.880001 q 5.92,0 8.32,-3.36 2.4,-3.36 2.4,-7.52 v -19.36 q 0,-4 -2.4,-7.36 -2.4,-3.52 -8.32,-3.52 H 95.919879 q -8.32,0 -17.12,-6.08 -8.64,-6.72 -8.64,-19.36 v -19.04 q 0,-6.4 2.24,-11.2 2.24,-4.96 6.4,-8 h -0.16 q 4.16,-2.72 8.64,-4.48 4.48,-1.76 8.64,-1.76 h 34.880001 q 4.16,0 8.64,1.76 4.48,1.76 8.64,4.48 h -0.16 q 4.16,3.04 6.4,8 2.24,4.8 2.24,11.2 v 9.44 q 0,7.52 -9.6,7.52 -9.44,0 -9.44,-7.52 v -8 q 0,-4 -2.4,-7.36 -2.4,-3.36 -8.32,-3.36 H 99.919879 q -5.92,0 -8.32,3.36 -2.4,3.36 -2.4,7.36 v 16.32 q 0,4.16 2.4,7.52 2.4,3.2 8.32,3.2 z"
     style="font-family:Gugi;-inkscape-font-specification:Gugi"
     id="path1772" /><path
     d="m 223.75996,511.69212 -35.04,107.52 v -0.16 q -0.96,2.4 -2.72,4 -1.6,1.44 -4,1.44 -1.28,0 -2.56,-0.32 -1.12,-0.16 -2.4,-0.48 h 0.16 q -9.12,-2.88 -6.72,-10.24 l 36.48,-110.88 q 0.8,-2.56 2.72,-4.32 2.08,-1.76 4.8,-2.08 2.72,-0.48 5.28,-0.64 2.56,-0.32 4,-0.32 1.44,0 4,0.32 2.56,0.16 5.28,0.48 2.24,0.32 4.32,2.4 2.24,2.08 3.36,4.16 8.96,27.52 18.08,55.52 9.28,27.84 18.24,55.36 2.24,7.36 -6.72,10.24 -1.28,0.32 -2.4,0.48 -0.96,0.32 -2.24,0.32 -2.24,0 -4.16,-1.44 -1.76,-1.6 -2.56,-4 v 0.16 z m 12,72.96 q 0,5.12 -3.68,8.8 -3.52,3.52 -8.64,3.52 -5.12,0 -8.64,-3.52 -3.52,-3.68 -3.52,-8.8 0,-5.12 3.52,-8.64 3.52,-3.68 8.64,-3.68 5.12,0 8.64,3.68 3.68,3.52 3.68,8.64 z"
     style="font-family:Gugi;-inkscape-font-specification:Gugi"
     id="path1774" /><path
     d="m 301.52009,623.21212 q -5.92,0 -8,-3.04 -2.08,-3.04 -2.08,-6.72 v -110.56 q 0,-7.68 9.28,-7.68 9.6,0 9.6,7.68 v 104.16 h 53.44 q 5.76,0 5.76,7.84 0.32,8.32 -5.76,8.32 z"
     style="font-family:Gugi;-inkscape-font-specification:Gugi"
     id="path1776" /><path
     d="m 421.84008,623.85212 q -3.2,0 -6.88,-0.96 -3.52,-1.12 -5.12,-4 -3.68,-12.48 -7.68,-25.6 -4,-13.12 -8,-25.76 -4.48,-14.88 -9.6,-30.88 -5.12,-16.16 -9.6,-30.88 -0.96,-3.52 1.12,-6.08 2.08,-2.72 5.92,-4 2.4,-0.64 4.16,-0.64 5.44,0 7.04,5.44 l 11.84,37.92 q 1.6,5.76 3.68,12.64 2.24,6.88 4.48,14.08 2.24,7.2 4.48,14.4 2.24,7.04 4.16,13.12 3.04,-10.08 6.56,-21.76 3.68,-11.84 7.36,-24 3.84,-12.16 7.52,-24 3.68,-12 6.88,-22.4 1.76,-5.44 6.88,-5.44 1.92,0 4.48,0.64 8.8,2.4 6.88,10.08 -8.64,28 -17.44,56.48 -8.8,28.48 -17.44,56.64 -1.28,3.2 -4.8,4.16 -3.36,0.8 -6.88,0.8 z"
     style="font-family:Gugi;-inkscape-font-specification:Gugi"
     id="path1778" /><path
     d="m 544.08013,496.01212 q 4.16,0 8.64,1.76 4.48,1.76 8.64,4.48 h -0.16 q 4.16,3.04 6.4,8 2.24,4.8 2.24,11.2 v 76 q 0,12.96 -8.64,19.36 -4.16,3.04 -8.64,4.8 -4.32,1.6 -8.48,1.6 h -34.88 q -4.16,0 -8.64,-1.6 -4.32,-1.76 -8.48,-4.8 -4.16,-3.2 -6.4,-7.84 -2.24,-4.8 -2.24,-11.52 v -76 q 0,-6.4 2.24,-11.2 2.24,-4.96 6.4,-8 h -0.16 q 4.16,-2.72 8.64,-4.48 4.48,-1.76 8.64,-1.76 z m -4,111.04 q 5.92,0 8.32,-3.36 2.4,-3.36 2.4,-7.52 v -73.28 q 0,-4 -2.4,-7.36 -2.4,-3.36 -8.32,-3.36 h -26.88 q -5.92,0 -8.32,3.36 -2.4,3.36 -2.4,7.36 v 73.28 q 0,4.16 2.4,7.52 2.4,3.36 8.32,3.36 z"
     style="font-family:Gugi;-inkscape-font-specification:Gugi"
     id="path1780" /></g>
</svg>
