<svg xmlns="http://www.w3.org/2000/svg" xml:space="preserve" width="640" height="640" version="1.1" viewBox="0 0 640 640"><g fill-rule="nonzero" paint-order="stroke"><path d="M212.311 202.407H141.44a7.985 7.985 0 0 1-7.989-7.988v-.862a7.985 7.985 0 0 1 7.99-7.988h70.871a7.989 7.989 0 0 1 7.989 7.988v.862a7.989 7.989 0 0 1-7.989 7.988m7.232 33.298h-78.107a7.989 7.989 0 0 1-7.989-7.989v-.866a7.989 7.989 0 0 1 7.989-7.989h78.107c4.41 0 7.99 3.58 7.99 7.989v.866c0 4.41-3.58 7.989-7.99 7.989m15.034 33.29h-93.141a7.985 7.985 0 0 1-7.99-7.988v-.861a7.989 7.989 0 0 1 7.99-7.99h93.14c4.41 0 7.99 3.58 7.99 7.99v.86a7.989 7.989 0 0 1-7.99 7.99m22.82 33.294H141.435a7.989 7.989 0 0 1-7.989-7.988v-.861a7.985 7.985 0 0 1 7.989-7.99h115.962a7.985 7.985 0 0 1 7.989 7.99v.86a7.989 7.989 0 0 1-7.989 7.99m-14.347 33.297H141.87c-4.652 0-8.422-3.77-8.422-8.422s3.77-8.422 8.422-8.422h101.182c4.651 0 8.421 3.77 8.421 8.422s-3.77 8.422-8.421 8.422" fill="#1576b9" opacity="1"/><path d="M80.05 386.452s105.142-.758 153.94-.01c41.26.629 77.144-27.994 87.804-65.25 15.88-55.509-30.887-88.077-40.253-135.69-2.155-10.96-2.847-22.063-2.011-33.048 3.76-49.31 37.097-95.926 88.639-112.229 12.548-3.966 26.215-5.863 39.407-6.07 35.09-.541 104.111-.51 135.715-.464 9.118.01 16.54-7.313 16.653-16.426 0-.113 0-.227.005-.335.119-9.247-7.333-16.818-16.58-16.839C511.377.014 442.052-.12 406.126.21c-87.437.82-148.737 67.922-158.371 136.958-2.331 16.715-2.388 32.733-.222 48.123 3.502 24.935 13.491 47.787 27.958 70.083 13.192 20.33 16.137 29.634 16.147 40.356.021 30.459-23.068 55.988-53.177 56.591-41.01.825-82.053.211-122.925.206V168.086h63.9c17.658 0 32.465-13.105 34.873-30.599H80.05v248.965m348.072-131.444h70.006c4.652 0 8.422 3.77 8.422 8.422s-3.77 8.422-8.422 8.422h-70.006c-4.652 0-8.422-3.77-8.422-8.422s3.77-8.422 8.422-8.422m-7.233-33.29h77.241c4.652 0 8.422 3.77 8.422 8.416a8.421 8.421 0 0 1-8.422 8.422h-77.24a8.421 8.421 0 0 1-8.422-8.422c0-4.646 3.77-8.416 8.422-8.416" fill="#1b9554" opacity="1"/><path d="M405.855 188.42h92.275a8.421 8.421 0 0 1 8.422 8.423c0 4.646-3.77 8.416-8.422 8.416h-92.275c-4.652 0-8.422-3.77-8.422-8.416a8.421 8.421 0 0 1 8.422-8.422m-23.252-33.291h115.962a7.984 7.984 0 0 1 7.989 7.983v.866a7.989 7.989 0 0 1-7.989 7.99H382.603a7.989 7.989 0 0 1-7.989-7.99v-.866a7.984 7.984 0 0 1 7.989-7.984m13.913-33.295h102.048a7.985 7.985 0 0 1 7.989 7.99v.86a7.985 7.985 0 0 1-7.989 7.99H396.516a7.989 7.989 0 0 1-7.988-7.99v-.86a7.989 7.989 0 0 1 7.988-7.99" fill="#1b9554" opacity="1"/><path d="M559.95 70.969s-105.142.753-153.94.01c-41.26-.629-77.144 27.994-87.804 65.25-15.88 55.509 30.887 88.077 40.253 135.69 2.155 10.96 2.847 22.058 2.011 33.043-3.76 49.31-37.097 95.931-88.639 112.228-12.548 3.972-26.215 5.87-39.407 6.07-35.09.547-104.111.516-135.715.47-9.118-.016-16.54 7.308-16.653 16.426 0 .108 0 .222-.005.335-.119 9.247 7.333 16.813 16.58 16.834 31.991.082 101.316.216 137.242-.119 87.437-.815 148.737-67.917 158.371-136.958 2.331-16.715 2.388-32.733.222-48.123-3.502-24.93-13.491-47.782-27.958-70.083-13.192-20.325-16.137-29.629-16.147-40.356-.021-30.454 23.068-55.983 53.177-56.586 41.01-.825 82.053-.211 122.925-.211V289.33h-63.9c-17.658 0-32.465 13.11-34.873 30.604h134.26V70.969" fill="#1576b9" opacity="1"/></g><path d="M130.8 549.932q4.16 0 8.64 1.76t8.64 4.64h-.16q4.16 2.88 6.4 7.84t2.24 11.36v21.92q0 12.96-8.64 19.36-4.16 3.04-8.64 4.8-4.32 1.6-8.48 1.6H95.92q-4.16 0-8.64-1.6-4.32-1.76-8.48-4.8-8.64-6.4-8.64-19.36v-10.56q0-7.52 9.44-7.52 9.6 0 9.6 7.52v9.28q0 4.16 2.4 7.52 2.4 3.36 8.32 3.36h26.88q5.92 0 8.32-3.36 2.4-3.36 2.4-7.52v-19.36q0-4-2.4-7.36-2.4-3.52-8.32-3.52H95.92q-8.32 0-17.12-6.08-8.64-6.72-8.64-19.36v-19.04q0-6.4 2.24-11.2 2.24-4.96 6.4-8h-.16q4.16-2.72 8.64-4.48 4.48-1.76 8.64-1.76h34.88q4.16 0 8.64 1.76t8.64 4.48h-.16q4.16 3.04 6.4 8 2.24 4.8 2.24 11.2v9.44q0 7.52-9.6 7.52-9.44 0-9.44-7.52v-8q0-4-2.4-7.36-2.4-3.36-8.32-3.36H99.92q-5.92 0-8.32 3.36-2.4 3.36-2.4 7.36v16.32q0 4.16 2.4 7.52 2.4 3.2 8.32 3.2zm92.96-38.24-35.04 107.52v-.16q-.96 2.4-2.72 4-1.6 1.44-4 1.44-1.28 0-2.56-.32-1.12-.16-2.4-.48h.16q-9.12-2.88-6.72-10.24l36.48-110.88q.8-2.56 2.72-4.32 2.08-1.76 4.8-2.08 2.72-.48 5.28-.64 2.56-.32 4-.32t4 .32q2.56.16 5.28.48 2.24.32 4.32 2.4 2.24 2.08 3.36 4.16 8.96 27.52 18.08 55.52 9.28 27.84 18.24 55.36 2.24 7.36-6.72 10.24-1.28.32-2.4.48-.96.32-2.24.32-2.24 0-4.16-1.44-1.76-1.6-2.56-4v.16zm12 72.96q0 5.12-3.68 8.8-3.52 3.52-8.64 3.52-5.12 0-8.64-3.52-3.52-3.68-3.52-8.8 0-5.12 3.52-8.64 3.52-3.68 8.64-3.68 5.12 0 8.64 3.68 3.68 3.52 3.68 8.64zm65.76 38.56q-5.92 0-8-3.04t-2.08-6.72v-110.56q0-7.68 9.28-7.68 9.6 0 9.6 7.68v104.16h53.44q5.76 0 5.76 7.84.32 8.32-5.76 8.32zm120.32.64q-3.2 0-6.88-.96-3.52-1.12-5.12-4-3.68-12.48-7.68-25.6-4-13.12-8-25.76-4.48-14.88-9.6-30.88-5.12-16.16-9.6-30.88-.96-3.52 1.12-6.08 2.08-2.72 5.92-4 2.4-.64 4.16-.64 5.44 0 7.04 5.44l11.84 37.92q1.6 5.76 3.68 12.64 2.24 6.88 4.48 14.08l4.48 14.4q2.24 7.04 4.16 13.12 3.04-10.08 6.56-21.76 3.68-11.84 7.36-24 3.84-12.16 7.52-24 3.68-12 6.88-22.4 1.76-5.44 6.88-5.44 1.92 0 4.48.64 8.8 2.4 6.88 10.08-8.64 28-17.44 56.48-8.8 28.48-17.44 56.64-1.28 3.2-4.8 4.16-3.36.8-6.88.8zm122.24-127.84q4.16 0 8.64 1.76t8.64 4.48h-.16q4.16 3.04 6.4 8 2.24 4.8 2.24 11.2v76q0 12.96-8.64 19.36-4.16 3.04-8.64 4.8-4.32 1.6-8.48 1.6H509.2q-4.16 0-8.64-1.6-4.32-1.76-8.48-4.8-4.16-3.2-6.4-7.84-2.24-4.8-2.24-11.52v-76q0-6.4 2.24-11.2 2.24-4.96 6.4-8h-.16q4.16-2.72 8.64-4.48 4.48-1.76 8.64-1.76zm-4 111.04q5.92 0 8.32-3.36 2.4-3.36 2.4-7.52v-73.28q0-4-2.4-7.36-2.4-3.36-8.32-3.36H513.2q-5.92 0-8.32 3.36-2.4 3.36-2.4 7.36v73.28q0 4.16 2.4 7.52 2.4 3.36 8.32 3.36z" fill="#1576b9" fill-rule="nonzero" aria-label="SALVO" font-family="Gugi" opacity="1" style="-inkscape-font-specification:Gugi" transform="translate(0 15.508)"/></svg>