<svg xmlns="http://www.w3.org/2000/svg" width="640" height="640" xmlns:v="https://vecta.io/nano"><g paint-order="stroke"><path d="M212.305 202.408H141.44c-4.414 0-7.988-3.574-7.988-7.988v-.861c0-4.414 3.574-7.988 7.988-7.988h70.865a7.99 7.99 0 0 1 7.988 7.988v.861a7.99 7.99 0 0 1-7.988 7.988m7.235 33.296h-78.1a7.99 7.99 0 0 1-7.988-7.988v-.866a7.99 7.99 0 0 1 7.988-7.988h78.1c4.409 0 7.988 3.579 7.988 7.988v.866c0 4.409-3.579 7.988-7.988 7.988m15.032 33.292H141.44c-4.414 0-7.988-3.574-7.988-7.988v-.861a7.99 7.99 0 0 1 7.988-7.988h93.132c4.409 0 7.988 3.579 7.988 7.988v.861a7.99 7.99 0 0 1-7.988 7.988m22.818 33.296H141.439a7.99 7.99 0 0 1-7.988-7.988v-.861c0-4.414 3.574-7.988 7.988-7.988H257.39c4.414 0 7.988 3.574 7.988 7.988v.861a7.99 7.99 0 0 1-7.988 7.988m-14.346 33.296H141.872a8.42 8.42 0 0 1-8.421-8.421h0a8.42 8.42 0 0 1 8.421-8.421h101.172a8.42 8.42 0 0 1 8.421 8.421h0a8.42 8.42 0 0 1-8.421 8.421" fill="#9411bb"/><g fill="#dd1f2d"><path d="M80.073 386.434l153.926-.01c41.255.629 77.136-27.991 87.795-65.244 15.878-55.503-30.884-88.068-40.249-135.676-2.156-10.958-2.847-22.061-2.011-33.045 3.759-49.304 37.093-95.917 88.63-112.218 12.547-3.966 26.212-5.863 39.403-6.07l135.702-.464c9.117.01 16.538-7.312 16.651-16.425l.005-.335C560.044 7.701 552.592.131 543.346.11 511.36.033 442.041-.101 406.119.229c-87.429.82-148.723 67.915-158.356 136.945-2.331 16.713-2.388 32.73-.222 48.118 3.501 24.933 13.49 47.783 27.955 70.076 13.191 20.328 16.136 29.631 16.146 40.352.021 30.456-23.066 55.983-53.172 56.586-41.007.825-82.045.211-122.913.206V168.089h63.893c17.657 0 32.462-13.104 34.87-30.595H80.073v248.941M428.129 255.01h69.999a8.42 8.42 0 0 1 8.421 8.421h0a8.42 8.42 0 0 1-8.421 8.421h-69.999a8.42 8.42 0 0 1-8.421-8.421h0a8.42 8.42 0 0 1 8.421-8.421"/><path d="M420.893 221.719h77.234a8.42 8.42 0 0 1 8.421 8.416h0a8.42 8.42 0 0 1-8.421 8.421h-77.234a8.42 8.42 0 0 1-8.421-8.421h0a8.42 8.42 0 0 1 8.421-8.416m-15.031-33.297h92.266a8.42 8.42 0 0 1 8.421 8.421h0a8.42 8.42 0 0 1-8.421 8.416h-92.266a8.42 8.42 0 0 1-8.421-8.416h0a8.42 8.42 0 0 1 8.421-8.421m-23.252-33.291h115.951c4.414 0 7.988 3.574 7.988 7.983v.866a7.99 7.99 0 0 1-7.988 7.988H382.61a7.99 7.99 0 0 1-7.988-7.988v-.866c0-4.409 3.574-7.983 7.988-7.983m13.913-33.296h102.038c4.414 0 7.988 3.574 7.988 7.988v.861c0 4.414-3.574 7.988-7.988 7.988H396.523a7.99 7.99 0 0 1-7.988-7.988v-.861a7.99 7.99 0 0 1 7.988-7.988"/></g><path d="M559.927 70.989L406 70.999c-41.255-.629-77.136 27.991-87.795 65.244-15.878 55.503 30.884 88.068 40.249 135.676 2.156 10.958 2.847 22.056 2.011 33.04-3.759 49.304-37.093 95.922-88.63 112.218-12.547 3.971-26.212 5.868-39.403 6.07l-135.702.469c-9.117-.015-16.538 7.307-16.651 16.425 0 .108 0 .222-.005.335-.119 9.246 7.333 16.811 16.579 16.832l137.228-.119c87.429-.815 148.723-67.91 158.356-136.945 2.331-16.713 2.388-32.73.222-48.118-3.501-24.928-13.49-47.778-27.955-70.076-13.191-20.323-16.136-29.626-16.146-40.352-.021-30.451 23.066-55.977 53.172-56.581 41.007-.825 82.045-.211 122.913-.211v184.424h-63.893c-17.657 0-32.462 13.109-34.87 30.601h134.248V70.989" fill="#9411bb"/></g><path d="M130.8 565.44q4.16 0 8.64 1.76 4.48 1.76 8.64 4.64h-.16q4.16 2.88 6.4 7.84 2.24 4.96 2.24 11.36v21.92q0 12.96-8.64 19.36-4.16 3.04-8.64 4.8-4.32 1.6-8.48 1.6H95.92q-4.16 0-8.64-1.6-4.32-1.76-8.48-4.8-8.64-6.4-8.64-19.36V602.4q0-7.52 9.44-7.52 9.6 0 9.6 7.52v9.28q0 4.16 2.4 7.52 2.4 3.36 8.32 3.36h26.88q5.92 0 8.32-3.36 2.4-3.36 2.4-7.52v-19.36q0-4-2.4-7.36-2.4-3.52-8.32-3.52H95.92q-8.32 0-17.12-6.08-8.64-6.72-8.64-19.36v-19.04q0-6.4 2.24-11.2 2.24-4.96 6.4-8h-.16q4.16-2.72 8.64-4.48 4.48-1.76 8.64-1.76h34.88q4.16 0 8.64 1.76 4.48 1.76 8.64 4.48h-.16q4.16 3.04 6.4 8 2.24 4.8 2.24 11.2v9.44q0 7.52-9.6 7.52-9.44 0-9.44-7.52v-8q0-4-2.4-7.36-2.4-3.36-8.32-3.36H99.92q-5.92 0-8.32 3.36-2.4 3.36-2.4 7.36v16.32q0 4.16 2.4 7.52 2.4 3.2 8.32 3.2zm92.96-38.24l-35.04 107.52v-.16q-.96 2.4-2.72 4-1.6 1.44-4 1.44-1.28 0-2.56-.32-1.12-.16-2.4-.48h.16q-9.12-2.88-6.72-10.24l36.48-110.88q.8-2.56 2.72-4.32 2.08-1.76 4.8-2.08 2.72-.48 5.28-.64 2.56-.32 4-.32 1.44 0 4 .32 2.56.16 5.28.48 2.24.32 4.32 2.4 2.24 2.08 3.36 4.16 8.96 27.52 18.08 55.52 9.28 27.84 18.24 55.36 2.24 7.36-6.72 10.24-1.28.32-2.4.48-.96.32-2.24.32-2.24 0-4.16-1.44-1.76-1.6-2.56-4v.16zm12 72.96q0 5.12-3.68 8.8-3.52 3.52-8.64 3.52-5.12 0-8.64-3.52-3.52-3.68-3.52-8.8 0-5.12 3.52-8.64 3.52-3.68 8.64-3.68 5.12 0 8.64 3.68 3.68 3.52 3.68 8.64zm65.76 38.56q-5.92 0-8-3.04-2.08-3.04-2.08-6.72V518.4q0-7.68 9.28-7.68 9.6 0 9.6 7.68v104.16h53.44q5.76 0 5.76 7.84.32 8.32-5.76 8.32zm120.32.64q-3.2 0-6.88-.96-3.52-1.12-5.12-4-3.68-12.48-7.68-25.6-4-13.12-8-25.76-4.48-14.88-9.6-30.88-5.12-16.16-9.6-30.88-.96-3.52 1.12-6.08 2.08-2.72 5.92-4 2.4-.64 4.16-.64 5.44 0 7.04 5.44l11.84 37.92q1.6 5.76 3.68 12.64 2.24 6.88 4.48 14.08 2.24 7.2 4.48 14.4 2.24 7.04 4.16 13.12 3.04-10.08 6.56-21.76 3.68-11.84 7.36-24 3.84-12.16 7.52-24 3.68-12 6.88-22.4 1.76-5.44 6.88-5.44 1.92 0 4.48.64 8.8 2.4 6.88 10.08-8.64 28-17.44 56.48-8.8 28.48-17.44 56.64-1.28 3.2-4.8 4.16-3.36.8-6.88.8zm122.24-127.84q4.16 0 8.64 1.76 4.48 1.76 8.64 4.48h-.16q4.16 3.04 6.4 8 2.24 4.8 2.24 11.2v76q0 12.96-8.64 19.36-4.16 3.04-8.64 4.8-4.32 1.6-8.48 1.6H509.2q-4.16 0-8.64-1.6-4.32-1.76-8.48-4.8-4.16-3.2-6.4-7.84-2.24-4.8-2.24-11.52v-76q0-6.4 2.24-11.2 2.24-4.96 6.4-8h-.16q4.16-2.72 8.64-4.48 4.48-1.76 8.64-1.76zm-4 111.04q5.92 0 8.32-3.36 2.4-3.36 2.4-7.52V538.4q0-4-2.4-7.36-2.4-3.36-8.32-3.36H513.2q-5.92 0-8.32 3.36-2.4 3.36-2.4 7.36v73.28q0 4.16 2.4 7.52 2.4 3.36 8.32 3.36z" fill="#9411bb"/></svg>