<svg width="84" height="24" viewBox="0 0 84 24" fill="none" xmlns="http://www.w3.org/2000/svg"><path d="M0 24V0.0362264H7.59111C9.25498 0.0362264 10.7253 0.249057 12.002 0.674717C13.2787 1.10038 14.2835 1.80679 15.0163 2.79396C15.7491 3.78113 16.1133 5.1034 16.1133 6.75623C16.1133 8.6083 15.6155 10.0981 14.6245 11.2302C13.6336 12.3623 12.3062 13.1366 10.6423 13.5487L16.8599 23.9955H13.3248L7.44362 13.8747H3.08807V23.9955H0V24ZM3.08807 11.3977H7.14403C9.05218 11.3977 10.5133 11.0128 11.518 10.2475C12.5228 9.48226 13.0252 8.31849 13.0252 6.76076C13.0252 5.20302 12.5228 4.07094 11.518 3.43698C10.5133 2.80302 9.05679 2.48604 7.14403 2.48604H3.08807V11.3977Z" fill="#333333"></path><path d="M22.7042 24L18.9801 0H22.4784L24.2667 15.0521C24.3404 15.7087 24.4095 16.3109 24.4695 16.8589C24.5294 17.4068 24.5847 17.9683 24.6354 18.5389C24.6861 19.1094 24.723 19.7977 24.746 20.6038H24.8566C25.0041 19.8023 25.1424 19.114 25.2668 18.5389C25.3913 17.9683 25.5157 17.4113 25.6402 16.877C25.7646 16.3426 25.9029 15.7449 26.0504 15.0883L28.4333 6.1766H31.4107L33.7198 15.0883C33.895 15.7449 34.0425 16.3426 34.1669 16.877C34.2914 17.4113 34.4112 17.9683 34.5218 18.5389C34.6324 19.1094 34.7615 19.7977 34.9136 20.6038H35.0611C35.1118 19.8023 35.1533 19.114 35.1901 18.5389C35.227 17.9683 35.2685 17.4113 35.3192 16.877C35.3699 16.3426 35.4298 15.7449 35.5035 15.0883L37.2181 0H40.5689L36.9969 24H33.1253L30.7424 14.3547C30.5672 13.6257 30.4059 12.9057 30.2584 12.1992C30.1109 11.4928 29.9727 10.7728 29.8482 10.0438H29.7376C29.6132 10.7728 29.4887 11.4928 29.3643 12.1992C29.2398 12.9057 29.0785 13.6257 28.8803 14.3547L26.4974 24H22.6996H22.7042Z" fill="#333333"></path><path d="M44.588 24V0.0362264H47.7129V12.0543H47.8235L58.0971 0.0362264H61.6323L53.8891 9.13358L62.5218 24H59.0235L51.9164 11.434L47.7129 16.3653V24H44.588Z" fill="#333333"></path><path d="M72.6479 24L64.8724 0.0362264H68.1495L72.0948 12.9691C72.5142 14.3819 72.9014 15.7042 73.2471 16.9313C73.5928 18.163 73.9937 19.4808 74.4362 20.8936H74.5837C75.0308 19.4808 75.4318 18.1585 75.7913 16.9313C76.1508 15.7042 76.5287 14.3819 76.9251 12.9691L80.8382 0.0362264H84L76.2568 24H72.6479Z" fill="#333333"></path></svg>