<?xml version="1.0" standalone="no"?>
<!DOCTYPE svg PUBLIC "-//W3C//DTD SVG 20010904//EN"
 "http://www.w3.org/TR/2001/REC-SVG-20010904/DTD/svg10.dtd">
<svg version="1.0" xmlns="http://www.w3.org/2000/svg"
 width="700.000000pt" height="700.000000pt" viewBox="0 0 700.000000 700.000000"
 preserveAspectRatio="xMidYMid meet">
<metadata>
Created by potrace 1.14, written by Peter Selinger 2001-2017
</metadata>
<g transform="translate(0.000000,700.000000) scale(0.100000,-0.100000)"
fill="#000000" stroke="none">
<path d="M4949 6733 c-8 -1 -113 -4 -234 -7 -232 -5 -359 -19 -530 -62 -492
-122 -923 -401 -1238 -799 -26 -33 -51 -64 -55 -70 -17 -21 -112 -164 -112
-169 0 -2 -17 -33 -38 -67 -114 -192 -226 -506 -257 -722 -3 -27 -8 -58 -10
-68 -25 -128 -24 -516 0 -664 58 -345 168 -618 393 -978 107 -170 172 -295
203 -387 27 -80 33 -284 10 -365 -63 -231 -169 -386 -340 -499 -111 -73 -218
-109 -363 -121 -65 -6 -1020 -9 -1600 -6 l-168 1 0 1303 0 1304 468 0 c257 0
490 3 517 7 28 4 86 25 131 46 134 65 230 181 267 323 l15 57 -951 0 -952 0 2
-1742 c1 -959 2 -1751 2 -1760 1 -16 80 -17 1183 -14 1159 3 1185 4 1275 24
441 101 802 426 943 850 46 141 59 230 56 387 -7 267 -67 438 -317 890 -195
353 -254 493 -295 703 -36 184 -38 473 -4 627 5 22 11 52 13 66 11 60 52 190
88 282 235 595 757 1018 1384 1121 156 26 207 27 1243 31 638 3 1027 8 1050
15 51 13 115 70 142 125 43 88 21 204 -51 272 -74 70 -19 66 -985 67 -479 1
-877 0 -885 -1z"/>
<path d="M4475 5709 c-397 -77 -735 -330 -914 -685 -50 -100 -96 -236 -115
-340 -14 -79 -15 -324 -2 -389 46 -214 119 -381 348 -795 158 -286 239 -493
263 -675 27 -205 26 -420 -1 -560 -2 -11 -6 -32 -9 -46 -26 -143 -102 -357
-174 -495 -35 -66 -164 -270 -180 -284 -4 -3 -31 -34 -61 -69 -147 -173 -328
-314 -540 -424 -90 -46 -252 -112 -300 -122 -8 -2 -35 -8 -60 -15 -25 -7 -56
-14 -70 -17 -14 -2 -43 -8 -65 -13 -22 -5 -71 -11 -110 -15 -38 -4 -86 -9
-105 -11 -19 -3 -489 -7 -1044 -9 -555 -2 -1026 -7 -1045 -10 -152 -24 -234
-231 -144 -359 47 -66 101 -98 180 -105 89 -8 1933 -5 2077 3 551 32 1070 264
1461 652 392 390 626 883 672 1415 9 109 9 342 0 445 -7 77 -10 97 -22 162 -3
15 -8 43 -11 62 -11 64 -74 274 -111 365 -54 136 -135 293 -238 460 -225 366
-258 453 -250 655 4 100 21 178 57 270 95 240 319 428 564 474 95 18 432 21
1662 17 l202 -1 -2 -1302 -3 -1303 -455 -1 c-495 -1 -538 -4 -620 -36 -151
-59 -274 -201 -308 -355 l-10 -43 949 0 c752 0 949 3 950 13 1 16 1 3456 0
3484 l-1 21 -1162 -1 c-1065 0 -1171 -2 -1253 -18z"/>
<path d="M4509 4982 c-42 -38 -51 -105 -20 -155 12 -19 31 -38 44 -42 12 -5
357 -9 767 -10 787 -2 771 -3 813 43 25 28 29 99 9 135 -35 59 -4 57 -826 57
l-756 0 -31 -28z"/>
<path d="M4329 4523 c-73 -45 -76 -157 -5 -204 18 -12 161 -14 861 -16 561 -1
852 1 875 8 89 27 105 159 26 209 -33 20 -45 20 -882 20 -767 -1 -852 -2 -875
-17z"/>
<path d="M918 4093 c-37 -23 -53 -58 -52 -111 1 -39 6 -50 37 -79 l37 -33 522
1 c378 0 532 3 557 12 60 21 88 105 56 167 -31 61 -23 60 -602 60 -475 -1
-531 -2 -555 -17z"/>
<path d="M4663 4056 c-89 -40 -87 -175 4 -212 26 -11 159 -14 700 -14 752 0
719 -3 757 73 16 33 17 45 7 76 -6 20 -22 48 -37 62 l-26 24 -686 2 c-569 2
-692 0 -719 -11z"/>
<path d="M923 3624 c-85 -42 -77 -180 12 -214 13 -5 282 -9 597 -9 616 1 607
0 642 53 20 32 21 105 0 134 -37 53 -28 52 -646 52 -500 0 -577 -2 -605 -16z"/>
<path d="M4871 3583 c-82 -40 -81 -167 3 -207 30 -14 97 -16 604 -16 l569 0
34 23 c21 14 39 38 48 63 13 37 12 44 -5 80 -36 75 -15 72 -653 72 -496 0
-571 -1 -600 -15z"/>
<path d="M919 3153 c-54 -38 -71 -99 -44 -157 33 -69 3 -66 758 -66 750 0 728
-2 759 63 29 62 6 132 -52 162 -26 13 -118 15 -713 15 -623 0 -685 -2 -708
-17z"/>
<path d="M4995 3123 c-43 -11 -85 -69 -85 -118 0 -37 26 -77 62 -98 27 -15 77
-17 555 -17 l526 0 33 25 c68 52 64 151 -7 194 -32 20 -51 20 -549 20 -283 -1
-524 -3 -535 -6z"/>
<path d="M930 2688 c-80 -28 -90 -162 -16 -208 33 -20 45 -20 881 -20 834 0
848 0 880 20 62 38 70 130 16 184 l-31 31 -853 1 c-471 1 -863 -3 -877 -8z"/>
<path d="M931 2214 c-83 -35 -90 -161 -10 -206 28 -17 84 -18 776 -18 729 0
746 0 778 20 76 47 70 157 -10 203 -30 18 -1492 19 -1534 1z"/>
</g>
</svg>
